<?xml version="1.0" encoding="utf-8"?>
<!-- Generator: Adobe Illustrator 15.1.0, SVG Export Plug-In  -->
<!DOCTYPE svg PUBLIC "-//W3C//DTD SVG 1.1//EN" "http://www.w3.org/Graphics/SVG/1.1/DTD/svg11.dtd" [
	<!ENTITY ns_flows "http://ns.adobe.com/Flows/1.0/">
]>
<svg version="1.1"
	 xmlns="http://www.w3.org/2000/svg" xmlns:xlink="http://www.w3.org/1999/xlink" xmlns:a="http://ns.adobe.com/AdobeSVGViewerExtensions/3.0/"
	 x="0px" y="0px" width="842px" height="642px" viewBox="-48.862 -27.755 842 642"
	 overflow="visible" enable-background="new -48.862 -27.755 842 642" xml:space="preserve">
<defs>
</defs>
<path d="M23.082,4.116h69.825c12.499,0,21.905,2.746,28.198,8.253c6.296,5.524,11.501,13.393,15.593,23.629
	c4.081,10.227,6.146,22.692,6.146,37.379c0,29.772-9.005,49.642-26.994,59.631c10.384,4.184,18.163,12.521,23.374,25.021
	c5.184,12.458,7.787,26.07,7.787,40.779c0,20.089-4.24,37.461-12.736,52.096c-8.491,14.639-22.278,21.994-41.368,21.994H23.082
	V4.116z M58.102,51.564v58.892h26.575c9.723,0,15.859-3.45,18.397-10.356c2.517-6.885,3.764-13.468,3.764-19.779
	c0-6.827-1.037-12.709-3.128-17.62c-2.08-4.921-4.378-8-6.865-9.266c-2.473-1.23-7.39-1.87-14.686-1.87H58.102z M58.102,158.28
	v64.796h26.954c9.189,0,15.71-2.898,19.504-8.67c3.778-5.771,5.691-13.845,5.691-24.215c0-8.663-1.84-16.161-5.479-22.464
	c-3.664-6.289-9.718-9.447-18.175-9.447H58.102z"/>
<path d="M225.759,277.031c-20.176,0-35.79-13.595-46.835-40.774c-11.034-27.17-16.532-60.046-16.532-98.636
	c0-39.259,5.587-71.993,16.751-98.259C190.36,13.11,206.284,0,226.97,0c20.88,0,36.663,13.979,47.302,42.018
	c10.646,28.039,15.968,60.084,15.968,96.191c0,38.997-5.489,71.849-16.436,98.645C262.831,263.629,246.818,277.031,225.759,277.031z
	 M226.748,51.389c-18.405,0-27.619,28.998-27.619,87.02c0,58.154,9.214,87.225,27.619,87.225c17.834,0,26.712-29.019,26.712-87.027
	C253.46,80.451,244.582,51.389,226.748,51.389z"/>
<path d="M428.408,4.116v268.781H398.49L341.751,91.345c0.075,4.598,0.143,7.617,0.226,9.058c0.28,4.593,0.443,8.46,0.443,11.628
	v160.867h-29.25V4.116h37.82l46.757,158.494c-0.439-7.866-0.668-13.822-0.668-17.906V4.116H428.408z"/>
<path d="M564.126,242.731c-10.287,23.688-34.293,34.3-50.83,34.3c-19.553,0-34.789-12.559-45.662-37.604
	c-10.844-25.094-16.287-57.522-16.287-97.28c0-42.788,5.791-77.178,17.398-103.158C480.326,12.984,496.082,0,515.96,0
	c16.713,0,30.154,8.39,40.414,25.187c10.254,16.798,16.508,39.175,18.752,67.151l-33.332,7.853
	c-2.736-32.549-11.324-48.802-25.834-48.802c-9.486,0-16.697,7.706-21.521,23.128c-4.877,15.428-7.32,37.449-7.32,66.053
	c0,27.567,2.629,48.639,7.918,63.204c5.238,14.577,12.75,21.859,22.492,21.859c6.289,0,11.896-3.665,16.859-11.03
	c4.943-7.355,7.406-19.084,7.406-35.235h-28.227v-50.218h61.559C575.126,182.335,573.609,220.86,564.126,242.731z"/>
<path d="M659.058,277.031c-20.178,0-35.781-13.595-46.816-40.774c-11.049-27.17-16.545-60.046-16.545-98.636
	c0-39.259,5.564-71.993,16.762-98.259C623.634,13.11,639.583,0,660.257,0c20.914,0,36.707,13.979,47.32,42.018
	c10.65,28.039,15.951,60.084,15.951,96.191c0,38.997-5.473,71.849-16.441,98.645C696.13,263.629,680.126,277.031,659.058,277.031z
	 M660.039,51.389c-18.379,0-27.59,28.998-27.59,87.02c0,58.154,9.211,87.225,27.59,87.225c17.812,0,26.725-29.019,26.725-87.027
	C686.763,80.451,677.851,51.389,660.039,51.389z"/>
<polygon points="106.575,371.083 106.575,317.905 0,317.905 0,468.481 0,586.663 36.438,586.663 36.438,481.528 91.867,481.528 
	91.867,468.481 91.867,431.315 36.438,431.315 36.438,371.083 "/>
<path d="M215.435,468.481L189.17,317.905h-40.645l-26.891,150.576l-21.112,118.182h30.766l9.394-55.32h48.441l9.217,55.32h37.719
	L215.435,468.481z M149.098,481.709l2.238-13.229l13.777-81.062l13.521,81.062l2.214,13.229H149.098z"/>
<path d="M355.007,468.481c-0.843-3.086-1.416-6.338-2.544-9.273c-4.859-12.545-10.824-21.625-17.93-27.27
	c-7.066-5.648-18.246-11.238-33.521-16.75c-9.148-3.295-14.985-7.158-17.595-11.641c-2.585-4.463-3.88-9.902-3.88-16.342
	c0-16.123,6.916-24.211,20.785-24.211c12.996,0,21.498,10.627,25.532,31.891l29.857-17.912
	c-8.43-42.129-27.311-63.201-56.704-63.201c-16.6,0-29.732,8.203-39.419,24.609c-9.682,16.4-14.521,36.564-14.521,60.434
	c0,23.633,4.045,41.58,12.152,53.844c3.904,5.881,9.107,11.131,15.522,15.822c6.96,5.109,15.324,9.537,25.263,13.229
	c10.227,3.82,17.131,7.889,20.725,12.223c3.569,4.32,5.366,10.434,5.366,18.311c0,7.74-1.981,14.402-5.91,19.982
	c-3.94,5.582-9.945,8.361-17.978,8.361c-16.661,0-26.797-12.525-30.451-37.6l-32.488,13.197
	c3.449,24.674,10.541,43.277,21.32,55.826c10.777,12.523,23.859,18.785,39.205,18.785c20.488,0,35.926-8.854,46.34-26.57
	c10.396-17.713,15.614-38.711,15.614-62.984C359.749,489.366,357.893,478.625,355.007,468.481z"/>
<polygon points="368.744,317.905 368.744,371.083 406.076,371.083 406.076,468.481 406.076,586.663 441.634,586.663 
	441.634,468.481 441.634,371.083 478.708,371.083 478.708,317.905 "/>
<polygon points="600.785,369.096 600.785,317.905 493.763,317.905 493.763,468.481 493.763,586.663 600.785,586.663 
	600.785,533.499 529.455,533.499 529.455,474.834 585.5,474.834 585.5,468.481 585.5,424.231 529.455,424.231 529.455,369.096 "/>
<path d="M716.589,468.481l-0.152-0.637c17.34-14.049,26.014-37.188,26.014-69.459c0-16.535-2.404-31.549-7.252-45.053
	c-4.807-13.518-10.906-22.803-18.248-27.852c-7.354-5.037-17.115-7.576-29.262-7.576h-65.83v150.576v118.182h35.322V480.141h25.113
	l23.051,106.521h38.748L716.589,468.481z M702.496,419.792c-2.469,6.1-5.309,10.039-8.473,11.818
	c-3.197,1.76-8.297,2.662-15.316,2.662h-21.525V365.75h20.73c8.066,0,13.551,0.691,16.473,2.07c2.914,1.367,5.643,5.025,8.111,10.92
	c2.492,5.9,3.742,12.607,3.742,20.09C706.238,406.711,704.988,413.7,702.496,419.792z"/>
</svg>
